<svg id="Capa_1" enable-background="new 0 0 512 512" height="512" viewBox="0 0 512 512" width="512" xmlns="http://www.w3.org/2000/svg"><g><path d="m511.568 512h-511.421v-75.012c0-4.67 3.785-8.455 8.455-8.455h494.512c4.67 0 8.455 3.785 8.455 8.455v75.012z" fill="#d1f19e"/><path d="m511.564 436.984v75.016h-20.874v-75.016c0-4.668-3.784-8.452-8.462-8.452h20.884c4.668-.001 8.452 3.783 8.452 8.452z" fill="#bbec6c"/><g><path d="m167.553 469.608h-91.945c-4.26 0-7.712-3.453-7.712-7.712s3.452-7.712 7.712-7.712h91.945c4.26 0 7.712 3.453 7.712 7.712s-3.452 7.712-7.712 7.712z" fill="#a2e62e"/></g><g><path d="m379.427 484.932h-91.945c-4.26 0-7.712-3.453-7.712-7.712s3.452-7.712 7.712-7.712h91.945c4.26 0 7.712 3.453 7.712 7.712s-3.453 7.712-7.712 7.712z" fill="#a2e62e"/></g><g><path d="m438.725 484.932h-23.986c-4.26 0-7.712-3.453-7.712-7.712s3.452-7.712 7.712-7.712h23.986c4.26 0 7.712 3.453 7.712 7.712s-3.453 7.712-7.712 7.712z" fill="#a2e62e"/></g><path d="m131.679 303.451c-1.455 0-2.88.123-4.271.35-2.005-24.868-22.807-44.427-48.19-44.427s-46.185 19.56-48.19 44.427c-1.391-.227-2.816-.35-4.271-.35-14.539 0-26.325 11.786-26.325 26.325s11.786 26.325 26.325 26.325c8.902 0 16.767-4.424 21.531-11.188 8.385 6.983 19.165 11.188 30.93 11.188s22.545-4.204 30.93-11.188c4.764 6.764 12.629 11.188 21.531 11.188 14.539 0 26.325-11.786 26.325-26.325-.001-14.539-11.787-26.325-26.325-26.325z" fill="#fef1da"/><path d="m157.935 331.637c-.881 12.823-11.188 23.292-23.996 24.364-9.813.822-18.623-3.758-23.794-11.093-8.38 6.992-19.156 11.188-30.93 11.188-11.763 0-22.539-4.195-30.93-11.188-5.166 7.341-13.987 11.923-23.825 11.09-14.774-1.25-25.757-14.913-23.81-29.612.009-.064.017-.129.026-.193 4.73 4.565 11.177 7.383 18.272 7.383 6.486 0 12.422-2.346 17.007-6.235 2.949-2.501 7.145-2.725 10.452-.722 7.298 4.419 15.851 6.958 25.002 6.958 9.149 0 17.707-2.538 25.002-6.956 3.308-2.004 7.504-1.78 10.454.722 4.585 3.888 10.52 6.234 17.006 6.234 13.326 0 24.329-9.892 26.076-22.735 5.378 5.167 8.55 12.612 7.988 20.795z" fill="#fae2c0"/><circle cx="322.527" cy="115.475" fill="#fee97d" r="115.475"/><path d="m438.002 115.475c0 63.772-51.701 115.473-115.473 115.473-25.285 0-48.667-8.123-67.68-21.912 15.023 7.157 31.845 11.167 49.603 11.167 63.772 0 115.473-51.7 115.473-115.473 0-38.477-18.817-72.554-47.742-93.53 38.92 18.559 65.819 58.281 65.819 104.275z" fill="#fedf30"/><path d="m227.906 200.839c-20.522 25.062-44.353 51.76-69.903 77.304-2.695 2.695-11.628 1.54-14.327 4.204-62.87 62.045-125.525 114.821-125.525 114.821h237.399 237.399s-62.497-52.643-125.286-114.586c-7.783-7.678-21.256-13.821-28.929-21.702-20.295-20.844-37.529-39.38-54.038-59.542-16.852-20.578-39.938-21.078-56.79-.499z" fill="#b3dafe"/><path d="m492.952 397.165h-27.382s-131.719-110.948-204.828-200.232c-5.193-6.344-11.763-10.735-18.879-13.172 15.958-5.46 34.59-1.069 46.251 13.172 73.109 89.283 204.838 200.232 204.838 200.232z" fill="#8ac9fe"/><path d="m367.658 282.588c-4.467 3.257-8.353 6.943-17.162 6.943-15.781 0-15.781-11.819-31.563-11.819-15.772 0-15.772 11.819-31.553 11.819-15.772 0-15.772-11.819-31.553-11.819s-15.782 11.819-31.553 11.819c-15.781 0-15.781-11.819-31.553-11.819-15.782 0-15.782 11.819-31.553 11.819-9.019 0-12.877-3.867-17.486-7.181 28.287-27.915 56.621-57.716 79.307-85.422 16.848-20.572 48.278-20.572 65.126 0 22.75 27.791 51.18 57.669 79.543 85.66z" fill="#fef1da"/><path d="m367.66 282.586c-4.473 3.259-8.36 6.941-17.161 6.941-1.203 0-2.314-.072-3.342-.196-30.611-29.891-61.829-62.363-86.414-92.399-5.193-6.334-11.753-10.725-18.879-13.172.103-.031.195-.072.299-.093 8.553-2.871 18.224-2.869 26.775 0 7.013 2.353 14.371 7.421 19.177 13.264 10.233 12.442 20.856 24.55 31.783 36.41 7.342 7.969 14.92 15.969 22.622 23.907 2.797 2.889 5.614 5.769 8.442 8.637 5.541 5.627 11.125 11.2 16.698 16.701z" fill="#fae2c0"/><path d="m479.311 122.072c-1.798 0-3.56.152-5.279.433-2.479-30.741-28.193-54.92-59.572-54.92s-57.093 24.179-59.572 54.92c-1.719-.281-3.481-.433-5.279-.433-17.973 0-32.542 14.57-32.542 32.542s14.57 32.542 32.542 32.542c11.005 0 20.727-5.468 26.616-13.83 10.365 8.633 23.691 13.83 38.235 13.83s27.87-5.197 38.235-13.83c5.889 8.362 15.611 13.83 26.616 13.83 17.973 0 32.542-14.57 32.542-32.542s-14.569-32.542-32.542-32.542z" fill="#fef1da"/><path d="m511.814 156.189c-.776 16.448-14.061 29.915-30.497 30.904-11.823.712-22.373-4.904-28.621-13.769-10.365 8.637-23.691 13.83-38.241 13.83-14.54 0-27.866-5.193-38.23-13.83-5.892 8.36-15.609 13.83-26.611 13.83-17.974 0-32.544-14.57-32.544-32.544 0-1.624.123-3.218.35-4.781 5.799 8.915 15.845 14.807 27.28 14.807 8.238 0 15.756-3.067 21.487-8.117 3.247-2.862 8.063-3.221 11.734-.927 9.174 5.733 20.012 9.044 31.632 9.044 11.611 0 22.448-3.311 31.621-9.044 3.67-2.294 8.486-1.935 11.733.926 5.731 5.051 13.251 8.118 21.497 8.118 16.339 0 29.871-12.051 32.184-27.763 3.597 5.508 5.564 12.167 5.226 19.316z" fill="#fae2c0"/><path d="m500.391 429.533h-489.067c-6.173 0-11.177-5.004-11.177-11.177v-11.01c0-6.173 5.004-11.177 11.177-11.177h489.067c6.173 0 11.177 5.004 11.177 11.177v11.01c0 6.173-5.004 11.177-11.177 11.177z" fill="#dc8758"/><path d="m511.564 407.342v11.013c0 6.18-4.997 11.177-11.177 11.177h-20.874c6.17 0 11.177-4.997 11.177-11.177v-11.013c0-6.17-5.008-11.177-11.177-11.177h20.874c6.179 0 11.177 5.007 11.177 11.177z" fill="#c86d36"/></g></svg>